<?xml version="1.0" encoding="UTF-8"?><!DOCTYPE svg PUBLIC "-//W3C//DTD SVG 1.1//EN" "http://www.w3.org/Graphics/SVG/1.1/DTD/svg11.dtd"><svg xmlns="http://www.w3.org/2000/svg"><symbol id="icon-arrow-left" viewBox="0 0 256 256">
    <path d="M179.199 38.399a6.378 6.378 0 0 1-1.875 4.524l-85.076 85.075 85.076 85.075c2.5 2.5 2.5 6.55 0 9.05s-6.55 2.5-9.05 0l-89.601-89.6a6.399 6.399 0 0 1 0-9.051l89.601-89.6a6.398 6.398 0 0 1 10.925 4.527z"/>
</symbol><symbol id="icon-arrow-right" viewBox="0 0 32 32">
    <path clip-rule="evenodd" d="M21.698 15.286l-9.002-8.999a1.014 1.014 0 0 0-1.431 0 1.009 1.009 0 0 0 0 1.428L19.553 16l-8.287 8.285a1.01 1.01 0 0 0 0 1.429 1.014 1.014 0 0 0 1.431 0l9.002-8.999a1.02 1.02 0 0 0-.001-1.429z" fill-rule="evenodd"/>
</symbol></svg>